<svg width="41" height="43" viewBox="0 0 41 43" fill="none" xmlns="http://www.w3.org/2000/svg">
<g clip-path="url(#clip0_203_7059)">
<path d="M27.3981 31.4541C32.1273 29.6845 35.4974 25.0916 35.4974 19.7057C35.4974 12.7861 29.9354 7.17749 23.0748 7.17749C17.7272 7.17749 13.1685 10.5859 11.419 15.3665L15.8366 26.6573L27.3981 31.4541Z" fill="#F8C952"/>
<path d="M17.6794 34.2853V41.9122C17.6794 42.5129 17.1963 43 16.6008 43H10.7966C10.2011 43 9.71803 42.5129 9.71803 41.9122V34.2853C9.71803 33.6846 9.235 33.1975 8.63944 33.1975H1.07859C0.483025 33.1975 0 32.7106 0 32.1096V26.257C0 25.6563 0.483025 25.1692 1.07859 25.1692H8.63944C9.235 25.1692 9.71803 24.682 9.71803 24.0813V16.4544C9.71803 15.8538 10.2011 15.3666 10.7966 15.3666H16.6008C17.1963 15.3666 17.6794 15.8538 17.6794 16.4544V24.0813C17.6794 24.682 18.1624 25.1692 18.758 25.1692H26.3199C26.9154 25.1692 27.3985 25.6563 27.3985 26.257V32.1096C27.3985 32.7103 26.9154 33.1975 26.3199 33.1975H18.7576C18.162 33.1975 17.6794 33.6846 17.6794 34.2853Z" fill="url(#paint0_linear_203_7059)"/>
<path d="M13.2175 10.3366C13.2143 10.4988 13.0253 10.5845 12.9031 10.4789C12.4358 10.0754 11.6737 9.08227 12.2536 7.17141C12.7884 5.40937 12.4547 4.42961 12.1725 3.97162C12.1257 3.89595 12.2178 3.81127 12.2893 3.86388C12.8345 4.26314 13.4347 5.26451 13.3218 7.66002C13.2496 9.19722 13.225 9.95933 13.2175 10.3366Z" fill="#F8C952"/>
<path d="M21.9805 6.17254C21.9005 6.31343 21.694 6.29686 21.6368 6.1448C21.4196 5.56429 21.2245 4.32402 22.644 2.92988C23.9526 1.6442 24.1273 0.623005 24.098 0.0850225C24.093 -0.00398052 24.2142 -0.0335281 24.2517 0.0471872C24.5396 0.66156 24.5882 1.83085 23.3474 3.87648C22.5518 5.18919 22.1667 5.84536 21.9805 6.17254Z" fill="#F8C952"/>
<path d="M32.8925 9.95064C32.7857 10.0721 32.5867 10.0133 32.5617 9.85299C32.4663 9.24006 32.526 7.98573 34.1969 6.91228C35.7378 5.9228 36.1151 4.9589 36.1951 4.42596C36.2083 4.33768 36.3327 4.33372 36.3534 4.42056C36.5109 5.08142 36.3227 6.23593 34.6946 7.98392C33.6503 9.10529 33.1408 9.66886 32.8925 9.95064Z" fill="#F8C952"/>
<path d="M37.0686 20.8144C36.9518 20.9261 36.7585 20.8508 36.7471 20.689C36.7035 20.07 36.8682 18.8254 38.6235 17.8986C40.2422 17.0442 40.6988 16.116 40.8235 15.5917C40.8442 15.5049 40.9682 15.5117 40.9818 15.5996C41.0832 16.2713 40.7989 17.406 39.0297 19.0084C37.8946 20.0368 37.3398 20.5546 37.0686 20.8144Z" fill="#F8C952"/>
<path d="M33.3162 29.5169C33.1555 29.5234 33.0594 29.3382 33.1566 29.2088C33.5281 28.7141 34.4652 27.8874 36.3909 28.357C38.1665 28.7901 39.1165 28.3952 39.5527 28.0838C39.6249 28.0323 39.7138 28.1199 39.6663 28.1948C39.3037 28.7677 38.3487 29.4318 35.9711 29.4618C34.4459 29.4812 33.69 29.5017 33.3162 29.5169Z" fill="#F8C952"/>
</g>
<defs>
<linearGradient id="paint0_linear_203_7059" x1="20.9471" y1="18.2002" x2="8.4754" y2="36.7784" gradientUnits="userSpaceOnUse">
<stop offset="0.2116" stop-color="#AEDCFF"/>
<stop offset="0.8774" stop-color="#63C8D1"/>
</linearGradient>
<clipPath id="clip0_203_7059">
<rect width="41" height="43" fill="white"/>
</clipPath>
</defs>
</svg>
